<svg width="1200" height="630" viewBox="0 0 1200 630" fill="none" xmlns="http://www.w3.org/2000/svg">
<rect width="1200" height="630" fill="white"/>
<rect x="118" y="162.52" width="308" height="308" rx="154" fill="url(#paint0_linear_14_4)"/>
<path d="M179.6 328.84L325.9 137L269.58 279.78L387.72 283.393L184 492.08L290.92 322.24L179.6 328.84Z" fill="url(#paint1_radial_14_4)"/>
<path d="M483.072 274.4H500.48L518.016 355.552H520.32L537.856 274.4H555.264L535.04 364H503.296L483.072 274.4ZM559.399 309.216C559.399 297.611 562.3 288.608 568.103 282.208C573.991 275.808 582.098 272.608 592.423 272.608C602.748 272.608 610.812 275.808 616.615 282.208C622.503 288.608 625.447 297.611 625.447 309.216V329.184C625.447 341.131 622.503 350.219 616.615 356.448C610.812 362.677 602.748 365.792 592.423 365.792C582.098 365.792 573.991 362.677 568.103 356.448C562.3 350.219 559.399 341.131 559.399 329.184V309.216ZM592.423 350.432C595.495 350.432 598.055 349.963 600.103 349.024C602.151 348 603.815 346.592 605.095 344.8C606.375 343.008 607.271 340.875 607.783 338.4C608.295 335.925 608.551 333.195 608.551 330.208V308.192C608.551 305.376 608.252 302.731 607.655 300.256C607.058 297.781 606.119 295.648 604.839 293.856C603.559 292.064 601.895 290.656 599.847 289.632C597.799 288.523 595.324 287.968 592.423 287.968C589.522 287.968 587.047 288.523 584.999 289.632C582.951 290.656 581.287 292.064 580.007 293.856C578.727 295.648 577.788 297.781 577.191 300.256C576.594 302.731 576.295 305.376 576.295 308.192V330.208C576.295 333.195 576.551 335.925 577.063 338.4C577.575 340.875 578.471 343.008 579.751 344.8C581.031 346.592 582.695 348 584.743 349.024C586.791 349.963 589.351 350.432 592.423 350.432ZM637.006 274.4H653.902V347.872H694.606V364H637.006V274.4ZM706.677 274.4H771.189V290.528H747.381V364H730.485V290.528H706.677V274.4ZM856.771 274.4H873.667V347.872H914.371V364H856.771V274.4ZM973.93 344.8H943.466L939.114 364H921.45L942.826 274.4H974.57L995.946 364H978.282L973.93 344.8ZM947.05 328.672H970.218L959.85 282.848H957.546L947.05 328.672ZM998.673 347.872H1007.12V290.528H998.673V274.4H1037.97C1042.24 274.4 1045.99 274.997 1049.23 276.192C1052.56 277.387 1055.33 279.008 1057.55 281.056C1059.86 283.104 1061.56 285.579 1062.67 288.48C1063.87 291.296 1064.46 294.368 1064.46 297.696V299.232C1064.46 304.352 1063.01 308.448 1060.11 311.52C1057.3 314.592 1053.71 316.725 1049.36 317.92V320.224C1053.71 321.419 1057.3 323.595 1060.11 326.752C1063.01 329.824 1064.46 333.92 1064.46 339.04V340.576C1064.46 343.904 1063.87 347.019 1062.67 349.92C1061.56 352.736 1059.86 355.211 1057.55 357.344C1055.33 359.392 1052.56 361.013 1049.23 362.208C1045.99 363.403 1042.24 364 1037.97 364H998.673V347.872ZM1024.02 347.872H1036.3C1039.89 347.872 1042.79 347.104 1045.01 345.568C1047.23 344.032 1048.34 341.472 1048.34 337.888V337.12C1048.34 333.536 1047.23 330.976 1045.01 329.44C1042.79 327.904 1039.89 327.136 1036.3 327.136H1024.02V347.872ZM1024.02 311.008H1036.3C1039.89 311.008 1042.79 310.283 1045.01 308.832C1047.23 307.296 1048.34 304.736 1048.34 301.152V300.384C1048.34 296.8 1047.23 294.283 1045.01 292.832C1042.79 291.296 1039.89 290.528 1036.3 290.528H1024.02V311.008Z" fill="black"/>
<defs>
<linearGradient id="paint0_linear_14_4" x1="272" y1="162.52" x2="272" y2="470.52" gradientUnits="userSpaceOnUse">
<stop stop-color="#00FF55"/>
<stop offset="1" stop-color="#C1FFD9"/>
</linearGradient>
<radialGradient id="paint1_radial_14_4" cx="0" cy="0" r="1" gradientUnits="userSpaceOnUse" gradientTransform="translate(283.66 316.52) rotate(90) scale(175.56 104.06)">
<stop/>
<stop offset="1" stop-color="#232323"/>
</radialGradient>
</defs>
</svg>
